<svg xmlns="http://www.w3.org/2000/svg" version="1.1" xmlns:xlink="http://www.w3.org/1999/xlink" xmlns:svgjs="http://svgjs.dev/svgjs" width="1000" height="1000" viewBox="0 0 1000 1000"><rect width="1000" height="1000" fill="#000000"></rect><g transform="matrix(0.7,0,0,0.7,149.90044910179654,149.90044910179637)"><svg viewBox="0 0 334 334" data-background-color="#fffefe" preserveAspectRatio="xMidYMid meet" height="1000" width="1000" xmlns="http://www.w3.org/2000/svg" xmlns:xlink="http://www.w3.org/1999/xlink"><g id="tight-bounds" transform="matrix(1,0,0,1,0.04749999999998522,0.04750000000001364)"><svg viewBox="0 0 333.90454557049503 333.90454557049503" height="333.90454557049503" width="333.90454557049503"><g><svg></svg></g><g><svg viewBox="0 0 333.90454557049503 333.90454557049503" height="333.90454557049503" width="333.90454557049503"><g><path d="M0 166.952c0-92.205 74.747-166.952 166.952-166.952 92.205 0 166.952 74.747 166.953 166.952 0 92.205-74.747 166.952-166.953 166.953-92.205 0-166.952-74.747-166.952-166.953zM166.952 327.306c88.561 0 160.354-71.793 160.354-160.354 0-88.561-71.793-160.354-160.354-160.354-88.561 0-160.354 71.793-160.354 160.354 0 88.561 71.793 160.354 160.354 160.354z" data-fill-palette-color="tertiary" fill="#ffffff" stroke="transparent"></path><ellipse rx="160.27418187383762" ry="160.27418187383762" cx="166.95227278524752" cy="166.95227278524752" fill="#ffffff" stroke="transparent" stroke-width="0" fill-opacity="1" data-fill-palette-color="tertiary"></ellipse></g><g transform="matrix(1,0,0,1,80.10318417594087,71.17305217166896)"><svg viewBox="0 0 173.6981772186133 191.55844122715712" height="191.55844122715712" width="173.6981772186133"><g><svg viewBox="0 0 173.6981772186133 191.55844122715712" height="191.55844122715712" width="173.6981772186133"><g><svg viewBox="0 0 213.1584412271571 235.07614984637422" height="191.55844122715712" width="173.6981772186133"><g transform="matrix(1,0,0,1,0,145.286491392466)"><svg viewBox="0 0 213.1584412271571 89.78965845390822" height="89.78965845390822" width="213.1584412271571"><g id="textblocktransform"><svg viewBox="0 0 213.1584412271571 89.78965845390822" height="89.78965845390822" width="213.1584412271571" id="textblock"><g><svg viewBox="0 0 213.1584412271571 89.78965845390822" height="89.78965845390822" width="213.1584412271571"><g transform="matrix(1,0,0,1,0,0)"><svg width="213.1584412271571" viewBox="3 -35.599998474121094 115.83999633789062 48.79999923706055" height="89.78965845390822" data-palette-color="#4d7e3e"><path d="M30.35-8L31.1-5.4 31.7-3.45Q31.85-2.95 31.85-2.5L31.85-2.5Q31.85-1.05 30.63-0.25 29.4 0.55 27.75 0.55L27.75 0.55Q26.45 0.55 25.5 0 24.55-0.55 24.25-1.55L24.25-1.55 22.55-8 12.35-8.05 10.6-1.7Q10.3-0.55 9.38-0.03 8.45 0.5 7.15 0.5L7.15 0.5Q5.5 0.5 4.25-0.33 3-1.15 3-2.5L3-2.5Q3-3 3.15-3.5L3.15-3.5 8.9-20.8 11.7-29.35Q12.85-32.75 14.2-34.18 15.55-35.6 17.85-35.6L17.85-35.6Q20.05-35.6 21.33-34.33 22.6-33.05 23.65-29.8L23.65-29.8Q26.4-21.1 28.45-14.35L28.45-14.35 29.8-14.35Q32.25-14.35 32.25-11.2L32.25-11.2Q32.25-8 30.4-8L30.4-8 30.35-8ZM14.25-14.5L20.85-14.45 20.2-16.8 18.95-21.2 18.45-22.95Q18.15-24.05 17.95-24.55 17.75-25.05 17.55-25.05L17.55-25.05Q17.3-25.05 17.15-24.6 17-24.15 16.7-23L16.7-23 16.3-21.55 14.25-14.5ZM46.7 13.2Q45 13.2 43.92 12.28 42.85 11.35 42.85 10L42.85 10Q42.85 9.4 43.1 8.75L43.1 8.75 45.1 2.95 46.9-2.15Q44.5-3.9 42.4-7.43 40.3-10.95 38.87-14.88 37.45-18.8 36.95-21.75L36.95-21.75Q36.85-22.25 36.85-22.75L36.85-22.75Q36.85-24.15 37.8-24.85 38.75-25.55 40.2-25.55L40.2-25.55Q41.65-25.55 42.27-24.98 42.9-24.4 43.1-23.35L43.1-23.35Q44.2-18.3 45.85-14.28 47.5-10.25 49.3-9L49.3-9Q50.05-11.35 50.77-14.15 51.5-16.95 51.75-17.95L51.75-17.95Q52.8-22.1 53.2-23.6L53.2-23.6Q53.5-24.7 54.15-25.18 54.8-25.65 56.05-25.65L56.05-25.65Q57.75-25.65 58.85-24.88 59.95-24.1 59.95-22.95L59.95-22.95Q59.95-22.6 59.9-22.4L59.9-22.4Q57.9-14.3 54.65-3.95L54.65-3.95Q50.85 8.3 49.65 11.1L49.65 11.1Q49.2 12.1 48.6 12.65 48 13.2 46.7 13.2L46.7 13.2ZM88.65-5.55Q89.6-5.4 90.12-4.85 90.65-4.3 90.65-2.9L90.65-2.9Q90.65-1.7 90.02-0.85 89.4 0 88.35 0L88.35 0Q86.2 0 85.05-0.53 83.9-1.05 82.95-2.45L82.95-2.45Q81.85-0.8 79.95-0.13 78.05 0.55 75.5 0.55L75.5 0.55Q69.85 0.55 66.9-2.7 63.95-5.95 63.95-11.75L63.95-11.75Q63.95-15.55 65.5-18.5 67.05-21.45 69.82-23.1 72.6-24.75 76.2-24.75L76.2-24.75Q78-24.75 79.55-24.05 81.1-23.35 81.9-22.2L81.9-22.2 82-22.85Q82.1-23.55 82.8-24.03 83.5-24.5 85-24.5L85-24.5Q86.6-24.5 87.35-23.85 88.1-23.2 88.1-22.2L88.1-22.2Q88.1-21.85 88.05-21.65L88.05-21.65Q87.75-19.95 87.45-15.95L87.45-15.95Q87.3-14.1 87.3-11.2L87.3-11.2 87.3-8.7Q87.3-7.25 87.55-6.48 87.8-5.7 88.65-5.55L88.65-5.55ZM80.3-9Q80.35-11.05 80.35-15.35L80.35-15.35Q80.35-17.05 79.22-18.13 78.1-19.2 76.35-19.2L76.35-19.2Q74.1-19.2 72.65-17.13 71.2-15.05 71.2-11.8L71.2-11.8Q71.2-8.7 72.5-6.85 73.8-5 76-5L76-5Q78.05-5 79.15-6.03 80.25-7.05 80.3-9L80.3-9ZM109.59-25.55Q113.99-25.55 116.42-22.48 118.84-19.4 118.84-13.4L118.84-13.4 118.79-2.1Q118.79-1.05 117.77-0.5 116.74 0.05 115.24 0.05L115.24 0.05Q113.79 0.05 112.67-0.45 111.54-0.95 111.54-1.85L111.54-1.85 111.59-13.45Q111.59-17.1 110.79-18.55 109.99-20 108.29-20L108.29-20Q106.84-20 105.99-18.7 105.14-17.4 104.54-13.65L104.54-13.65Q104.19-11.55 104.19-9L104.19-9 104.24-2.55Q104.24-1.25 103.27-0.58 102.29 0.1 100.64 0.1L100.64 0.1Q98.94 0.1 97.97-0.6 96.99-1.3 96.99-2.55L96.99-2.55Q96.99-12.95 96.69-18.75L96.69-18.75Q96.64-19.35 96.42-19.88 96.19-20.4 95.89-20.85 95.59-21.3 95.44-21.55L95.44-21.55Q95.14-22.1 95.14-22.65L95.14-22.65Q95.14-23.7 96.37-24.63 97.59-25.55 98.74-25.55L98.74-25.55Q99.29-25.55 99.82-25.2 100.34-24.85 100.99-24.05L100.99-24.05Q101.54-23.35 101.79-22.8 102.04-22.25 102.04-21.55L102.04-21.55 102.04-21.1Q102.94-23 104.77-24.28 106.59-25.55 109.59-25.55L109.59-25.55Z" opacity="1" transform="matrix(1,0,0,1,0,0)" fill="#000000" class="undefined-text-0" data-fill-palette-color="quaternary" id="text-0"></path></svg></g></svg></g></svg></g></svg></g><g transform="matrix(1,0,0,1,44.53456662192798,0)"><svg viewBox="0 0 124.08930798330115 124.08930798330115" height="124.08930798330115" width="124.08930798330115"><g><svg xmlns="http://www.w3.org/2000/svg" xmlns:xlink="http://www.w3.org/1999/xlink" version="1.1" x="0" y="0" viewBox="0.5 0.5 47 47" enable-background="new 0 0 48 48" xml:space="preserve" height="124.08930798330115" width="124.08930798330115" class="icon-icon-0" data-fill-palette-color="quaternary" id="icon-0"><g fill="#4d7e3e" data-fill-palette-color="quaternary"><path fill="#000000" d="M12.1 29.8h23.8V14H12.1V29.8zM21.9 27h7.3V28h-7.3V27zM14.5 23.4l4-1.9-4-1.8v-1.8l6.1 2.8v1.7l-6.1 2.8V23.4z" data-fill-palette-color="quaternary"></path><path fill="#000000" d="M6.9 33.2h34.2V7.1H6.9V33.2zM31.6 8.6H37v2h-5.4V8.6zM10 12h28v19.9H10V12z" data-fill-palette-color="quaternary"></path><path fill="#000000" d="M47.5 39.6V0.5h-47v39.1h15.2v5.9h-4.1v2h24.9v-2h-4.1v-5.9H47.5zM4.8 35.3V5.1h38.4v30.2H4.8z" data-fill-palette-color="quaternary"></path></g></svg></g></svg></g><g></g></svg></g></svg></g></svg></g></svg></g><defs></defs></svg><rect width="333.90454557049503" height="333.90454557049503" fill="none" stroke="none" visibility="hidden"></rect></g></svg></g></svg>